<?xml version="1.0" encoding="UTF-8"?>
<svg id="Layer_2" data-name="Layer 2" xmlns="http://www.w3.org/2000/svg" viewBox="0 0 59 40.07">
  <defs>
    <style>
      .cls-1 {
        fill: #cc96c1;
        stroke: #fff;
        stroke-miterlimit: 10;
        stroke-width: 2px;
      }
    </style>
  </defs>
  <g id="Layer_1-2" data-name="Layer 1">
    <path id="_4" data-name="4" class="cls-1" d="M9.29,19.59c-.45-1.15-.7-2.4-.7-3.71,0-5.59,4.53-10.12,10.12-10.12,2.02,0,3.9,.59,5.48,1.61,2.23-3.81,6.37-6.37,11.11-6.37,7.11,0,12.87,5.76,12.87,12.87,0,.13,0,.25,0,.38,5.65,1.37,9.84,6.33,9.84,12.23,0,6.96-5.83,12.6-13.01,12.6H10.8c-5.41,0-9.8-4.39-9.8-9.8,0-4.9,3.6-8.96,8.29-9.68Z"/>
  </g>
</svg>